<?xml version="1.0" standalone="no"?><!DOCTYPE svg PUBLIC "-//W3C//DTD SVG 1.1//EN" "http://www.w3.org/Graphics/SVG/1.1/DTD/svg11.dtd"><svg t="1530964114414" class="icon" style="" viewBox="0 0 1024 1024" version="1.1" xmlns="http://www.w3.org/2000/svg" p-id="14337" xmlns:xlink="http://www.w3.org/1999/xlink" width="32" height="32"><defs><style type="text/css"></style></defs><path d="M884.736 131.072c0-8.192-4.096-16.384-12.288-20.48-4.096 0-90.112-45.056-217.088-45.056-81.92 0-118.784 12.288-155.648 24.576C475.136 102.4 450.56 110.592 409.6 110.592c-57.344 0-86.016-8.192-118.784-20.48C258.048 81.92 225.28 69.632 159.744 69.632c-12.288 0-20.48 8.192-20.48 20.48l0 872.448c0 12.288 8.192 20.48 20.48 20.48 12.288 0 20.48-8.192 20.48-20.48l0-352.256c45.056 0 69.632 12.288 98.304 20.48 32.768 12.288 65.536 20.48 131.072 20.48 49.152 0 81.92-8.192 106.496-20.48 32.768-12.288 65.536-20.48 143.36-20.48 118.784 0 196.608 40.96 196.608 40.96 12.288 4.096 24.576 0 28.672-8.192 0-4.096 0-4.096 0-8.192l0 0L884.736 131.072 884.736 131.072zM843.776 598.016c-36.864-12.288-102.4-32.768-188.416-32.768-81.92 0-118.784 12.288-155.648 24.576-28.672 8.192-49.152 16.384-94.208 16.384-57.344 0-86.016-8.192-118.784-20.48-28.672-8.192-57.344-20.48-110.592-20.48L176.128 110.592c45.056 0 69.632 12.288 98.304 20.48C307.2 143.36 344.064 151.552 409.6 151.552c49.152 0 81.92-8.192 106.496-20.48 32.768-12.288 65.536-20.48 143.36-20.48 90.112 0 159.744 24.576 188.416 32.768L847.872 598.016z" p-id="14338"></path></svg>