<?xml version="1.0" standalone="no"?><!DOCTYPE svg PUBLIC "-//W3C//DTD SVG 1.1//EN" "http://www.w3.org/Graphics/SVG/1.1/DTD/svg11.dtd"><svg t="1530963475559" class="icon" style="" viewBox="0 0 1024 1024" version="1.1" xmlns="http://www.w3.org/2000/svg" p-id="5303" xmlns:xlink="http://www.w3.org/1999/xlink" width="32" height="32"><defs><style type="text/css"></style></defs><path d="M782.291 320.222l69.993 69.911c0 30.116-24.427 54.516-54.464 54.516h-163.495c-30.087 0-54.459-24.399-54.459-54.516v-163.468c0-30.048 24.373-54.461 54.459-54.461l69.993 69.966 179.243-179.27 78.026 78.053-179.295 179.268zM961.587 877.492l-78.026 78.055-179.243-179.272-69.993 69.968c-30.087 0-54.459-24.414-54.459-54.543v-147.265c0-30.115 24.373-54.517 54.459-54.517h163.495c30.038 0 54.464 24.401 54.464 54.517l-69.993 69.966 179.296 163.091zM390.212 846.244l-69.991-69.968-179.241 179.272-78.082-78.055 179.295-163.091-69.993-69.966c0-30.115 24.428-54.517 54.516-54.517h163.495c30.039 0 54.463 24.401 54.463 54.517v147.266c0 30.128-24.424 54.542-54.463 54.542v0zM390.212 444.907h-163.494c-30.086 0-54.516-24.345-54.516-54.46l69.993-69.967-179.296-179.266 78.082-78 179.241 179.268 69.991-69.953c30.039 0 54.463 24.333 54.463 54.463v163.455c0 30.116-24.424 54.46-54.463 54.46v0z" p-id="5304"></path></svg>